<?xml version="1.0" encoding="utf-8"?>
<!-- Generator: Adobe Illustrator 25.4.1, SVG Export Plug-In . SVG Version: 6.00 Build 0)  -->
<svg version="1.1" id="Layer_1" xmlns="http://www.w3.org/2000/svg" xmlns:xlink="http://www.w3.org/1999/xlink" x="0px" y="0px"
	 viewBox="0 0 301 94" style="enable-background:new 0 0 301 94;" xml:space="preserve">
<style type="text/css">
	.st0{fill:#FFFFFF;}
</style>
<g>
	<g>
		<path class="st0" d="M29.5,18.5c-2.4,0.1-6.9-1.4-9.1-2.1c-2.2-0.7-4-1.4-6.3-1.7c-7.1-1-10.4,3.5-10.4,6.6c0,2.6,2.1,4.6,3.7,4.9
			c3.8,0.6,5-2.4,4.4-4.6c4.1,1.9,5.7,2.1,7.6,1.5c1.4-0.4-5.2,10.5-12.9,7.1c-4.9-2.1-6.9-7.3-6.4-11.4C1,11.8,6.8,4.2,21.9,4.2
			c8.5,0,16,2.6,19.6,2.6c6.3-0.3,6.8-2.6,7.7-2.6c0.2,0,0.3,0.2,0.3,0.4c0,0.3-0.1,0.6-0.2,0.9C48.3,7.3,40.4,17.9,29.5,18.5z"/>
		<path class="st0" d="M92.5,6.4c-0.1-2.1-4.8-1-5.2-1c0-2.6-1.8-3.7-0.7-4.1c3.4-1.3,8-1.1,7.8,5.3c-0.2,7-10.1,14.8-13.3,15.4
			c-1,0.2-1,0.7-1,1.6V73c0,2.9,3.6,6.6,6.3,6.6c0.7,0,1.1,0.3,1.1,0.5c0,0.1-0.1,0.3-0.3,0.4C81.6,84.6,76.7,94,76.2,94
			c-0.7,0-5.8-5-8.7-8.3c-2.8-3.3-4.7-7.1-4.9-8.3c0-0.1,2.2-1.5,2.2-3.9V24.1c0-2-2.6-4.4-3.4-4.4c-1.4,0-3.8,3.4-3.8,5.3v4.5v4.2
			l0.1,38.6c0,4.3,2.9,4.5,2.9,5.1s-6.7,6.7-9.3,12c-2.2-5.5-9.5-11.8-9.5-12c0-0.5,2.4-0.2,2.3-3.7V33.6v-4.2v-5.5
			c0-0.9-1.2-3.6-2.5-3.6c-3.9,0-4.2,3.2-4.2,4.1v49.9c0,2.4,2.2,2.5,2.2,2.9c-0.2,3.8-9.4,16.4-14.4,16.7
			C20,90.4,8.6,91.2,3.7,80.7c-1-2.2-1.9-6.2,0.2-9.5c5.1-7.9,14.4-4.4,14.4-4.4s-2.9,2.1-3.7,6.2C12.8,71.7,8,70.6,7,73.7
			C6.2,77.4,9.1,79,11.7,80c5.1,1.5,11.4-3.1,11.5-8.4L23.7,24c0-2.8-3.2-5.3-3.2-5.9c0-0.2,2.3,0.9,3.2,1.1c1,0.3,3.4,1.2,6.3,1
			c3-0.1,5.3-0.7,8.2-2c5.9-2.7,10.3-7.8,12.8-11c0.6-0.8,1.2-1.8,1.3-1.8c0.3,0,1.8,5,3.8,7.3c1.6,1.9,4.5,4.1,4.8,4.1
			c0.1,0,0.3-0.1,0.6-0.3c0.6-0.5,8.3-6.4,9.4-11.2c0.3-1.1,0.5-1.5,0.6-1.5c0.4,0,0.6,1.2,0.9,2c0.5,1.7,5,7.3,10.7,7.3
			c4.3,0,8.3-2.5,8.9-5.5C92.4,7.2,92.5,6.9,92.5,6.4z"/>
	</g>
	<path class="st0" d="M114.8,74.7c-2.1,0-10.3-3.5-10.3-5v-0.2c-2.9,1.5-5.8,7.3-5.2,7.3c-0.7,0-0.2-3.3-6.1-5.7
		c-1.6-0.7-3.2-0.8-4.5-0.8c-2.9,0-3.6,1.2-4,1.2c-0.2,0-0.2-0.1-0.2-0.3c0-0.8,1.9-2.3,1.9-4.3V55.3c0-1.5-1.1-2.7-1.1-3.2
		c0-0.2,0.1-0.3,0.2-0.3c0.4,0,2.2,2.4,7.3,2.4c4.5,0,8.8-1.9,11.8-4v-1.4c0-2-1.2-0.6-5.1-2.9c-2-1.1-4.2-3.1-5.2-3.1
		c-0.9,0-3.3,1.8-2.9,3.9c0.4,1.8,2.6,1.2,3.5-0.2c0.9,1.8,0,3.3-1.7,4.2c-1.6,0.9-4.7-0.6-4.7-3.3c0-3.4,3-5.2,6.2-7.8
		c4.4-3.5,6.6-7.2,6.9-7.2c0.2,0,0.5,0.3,0.7,0.7c0.5,0.8,10.3,7.4,12.9,8.3c1.2,0.5,2.4,0.7,3.3,0.7c1.3,0,2.1-0.5,2.5-0.5
		s0.6,0.6,0.1,0.9c-0.5,0.3-5.7,0.8-5.7,3.9v15.9c0,1.3,3.7,3.4,5.5,3.4c2.3,0,2.3-2.2,3.2-2.2c0.2,0,0.3,0.2,0.3,0.3
		c0,0.3-0.1,0.6-0.3,0.8C123.3,65.8,116.2,74.7,114.8,74.7z M104.7,52.8c-6.8,4.5-7.5,1.8-7.5,3.9v5.2c0,1.8,2.3-1.4,7.2,4.6
		L104.7,52.8z"/>
	<path class="st0" d="M162.8,31.8c0.3,3.8-1,7.1-3.4,10.8c-2.7,4.1-8.6,7.9-9.7,7.9c-0.8,0-5.6-3.9-7.7-7v23.3
		c0,1.4,1.4,2.5,3.3,2.5c0.2,0,0.4-0.1,0.6-0.1c-3.1,1.3-7.3,4-9.9,7.1c-2-2.5-6.3-5.8-9.2-6c2.4-0.8,3.4-2.6,3.4-4V43
		c0-1.7-1.4-3.3-2.6-2.4c-1.3,1-1.5,0.2-1.3,0c3-2.5,8.2-8,8.2-8s7.5,2.1,7.5,6.9v0.9c3.1-2.5,5-4.5,7.5-9c0,0.1,3.3,5.7,7.1,5.7
		c1.6,0,3.7-0.4,4.1-3.7c0.2-1.4-0.1-3.1-1.4-2.9c-0.8,0.1-1.2,1.4-1.5,1.1c-0.8-0.4-1.3-1.1-1.3-2.2
		C157.5,27.8,162.5,27.6,162.8,31.8z"/>
	<path class="st0" d="M208.7,85.2c-2.3,3.1,1.7,6.2,5.6,4.4c1.1-0.5,4.2-2.5,4.2-2.5s0.2,2.3,0,3.2c-0.2,0.8-0.5,1.7-0.8,2.1
		s-2.3,1.5-7,1.6c-10,0.2-23.9-3.9-34.4-15.3c-5.9-6.4-11.5-18-11.5-29.1c0-32.5,25.3-40.5,30.3-41.5c0.7,1-8.8,3.3-13.7,13.4
		c-0.9,1.8-1.6,3.8-2.2,6.9c1.9-0.3,4.6,0.6,18-10.6c8.2-7.1,10.3-15.3,10.5-17c0.2-1,2.1-1,2.3-0.3c0.3,0.7,1.4,5.6,5.8,10.2
		c3,3.2,7.3,7.3,10.6,7c2.4-0.2,3.5-2.7,3.3-4.9c-0.2-2.1-1.3-2.3-2.1-2.1c-1.6,0.3-1.5,2-1.5,2.2c0,0.7-3.1-1.4-3.2-2.5
		c0-1.3,2.1-2.8,4.4-2.8c1.9,0,4.4,1.2,4.4,5.3c0,7.8-12.1,13.8-14.5,17.4c-0.5,0.8-0.9,1.1-1.5,1.1c0.3,0-5.2-1.6-9.5-7.1
		c-3.9-4.9-4.7-8.2-5.1-8.2c-0.2,0-0.4,0.3-0.4,0.9c0,5.1,0,34.1,0.5,34.1c0.2,0,21.2-21.9,27.6-21.4c0.3,0,0.6,0.5,0.6,0.8
		c0,0.2,0,1-1,1.3c-1.6,0.4-1.8,0.9-2,1.6c0.8,0.4,1.6,0.7,4,2.6c2.3,1.8,5.2,6.4,5.2,12.7c0,1.9-0.3,4-0.9,6.1
		c-2.8,8.7-6.5,14.4-14.5,20.8C215.9,79,211.4,81.5,208.7,85.2z M186.5,44.3c0-1.8,0-15.4-0.6-15.3c-0.3,0.1-0.7,0.4-3.4,1.2
		c-0.9,0.3-2.2,0.5-3.6,0.6c-0.3,2-0.4,3.9-0.4,6.2c0,8.6,1.7,16.9,7.7,25.4c0-0.3,0.7-0.3,0.7-1.2
		C186.8,60.6,186.7,52.2,186.5,44.3z M203.5,76.1c2,0.3,6.5,0.5,8.6-0.5c4.4-2.1,8.1-5.1,8.1-12.3c0-1.9-0.2-3.8-0.8-5.9
		c-2.1-8-9.2-9.8-10.1-9.9c-0.3,0-0.5-0.1-0.7-0.1c-0.7,0-20.1,18.8-19.8,18.8C193.8,73.1,198,75.1,203.5,76.1z"/>
	<g>
		<path class="st0" d="M248.9,76.3c-2.8-3.9-7.8-5.9-11.1-6.5c2.4,0,3.5-1.5,3.5-3.2V41.7c0-1.1-1.8-1.4-3.6-1.8
			c3-0.5,8.8-3.9,10.1-8.3c1,4.6,6.4,7.2,9.7,8c-2.2,0.1-3.9,0.4-3.9,2.2v24.8c0,2.2,2.1,3.1,4.3,3.2
			C253,70.6,250.2,73.5,248.9,76.3z"/>
		<path class="st0" d="M238.3,20.1c-0.1-0.1-0.1-0.2-0.1-0.3s0.1-0.3,0.3-0.4c0.3-0.3,0.7-0.5,0.8-0.3l1.5,1.5
			c3.2-1.8,5.5-5.3,7.1-8.7c1.2,2.2,9.4,9.1,9.4,10c0,0.2-0.1,0.2-0.3,0.3c-0.2,0.2-0.3,0.3-0.6,0.2l-1.6-1.4
			c-3,1.6-6.1,5.5-7.2,8.7C245.3,26.3,240.8,22.6,238.3,20.1z"/>
	</g>
	<path class="st0" d="M291.1,75.6c-1.9-2.5-6.3-5.8-9.1-6c2.4-0.8,3.3-2.6,3.3-4V43.1c0-2.4-1.8-3.3-3.1-3.3c-0.4,0-0.8,0.1-0.9,0.3
		l-4.7,3.7V66c0,1.4,1.4,2.5,3.3,2.5c0.2,0,0.4-0.1,0.6-0.1c-3.1,1.3-7.3,4-9.9,7.1c-2-2.5-6.3-5.8-9.2-6c2.4-0.8,3.4-2.6,3.4-4
		V43.1c0-1.7-1.2-2.6-2.7-2.6c-0.4,0-0.8,0.1-1.2,0.2c3-2.5,8.2-8,8.2-8s7.5,2.1,7.5,6.9V42c2.2-1.9,10.4-9,13.2-9
		c2.8,0,7.7,5,9.3,7.5c-0.9,0.1-1.9,1.2-1.9,2.2V66c0,1.4,1.4,2.5,3.2,2.5c0.2,0,0.4-0.1,0.6-0.1C298,69.7,293.8,72.5,291.1,75.6z"
		/>
</g>
</svg>
